{"accessors":[{"bufferView":0,"byteOffset":0,"componentType":5126,"count":4,"max":[5,0,5],"min":[-5,0,-5],"normalized":false,"type":"VEC3"},{"bufferView":1,"byteOffset":0,"componentType":5126,"count":4,"max":[1,0,-0.000015,1],"min":[1,0,-0.000015,1],"normalized":false,"type":"VEC4"},{"bufferView":2,"byteOffset":0,"componentType":5126,"count":4,"max":[0,1,-0.000015],"min":[0,1,-0.000015],"normalized":false,"type":"VEC3"},{"bufferView":3,"byteOffset":0,"componentType":5126,"count":4,"max":[1,1],"min":[0,0],"normalized":false,"type":"VEC2"},{"bufferView":4,"byteOffset":0,"componentType":5125,"count":6,"max":[3],"min":[0],"normalized":false,"type":"SCALAR"},{"bufferView":5,"byteOffset":0,"componentType":5126,"count":1950,"max":[0.5,1,0.5],"min":[-0.5,-1,-0.5],"normalized":false,"type":"VEC3"},{"bufferView":6,"byteOffset":0,"componentType":5126,"count":1950,"max":[1,0,1,1],"min":[-1,-0.000022,-1,1],"normalized":false,"type":"VEC4"},{"bufferView":7,"byteOffset":0,"componentType":5126,"count":1950,"max":[1,1,1],"min":[-1,-1,-1],"normalized":false,"type":"VEC3"},{"bufferView":8,"byteOffset":0,"componentType":5126,"count":1950,"max":[1,1],"min":[0,0],"normalized":false,"type":"VEC2"},{"bufferView":9,"byteOffset":0,"componentType":5125,"count":10368,"max":[1949],"min":[0],"normalized":false,"type":"SCALAR"},{"bufferView":10,"byteOffset":0,"componentType":5126,"count":180,"max":[0.499663,0.977454,0.49966],"min":[-0.484546,-0.976458,-0.481177],"normalized":false,"type":"VEC3"},{"bufferView":11,"byteOffset":0,"componentType":5125,"count":180,"max":[179],"min":[0],"normalized":false,"type":"SCALAR"}],"asset":{"generator":"Godot Engine v4.2.1.stable.official@b09f793f564a6c95dc76acc654b390e68441bd01","version":"2.0"},"bufferViews":[{"buffer":0,"byteLength":48,"byteOffset":0},{"buffer":0,"byteLength":64,"byteOffset":48},{"buffer":0,"byteLength":48,"byteOffset":112},{"buffer":0,"byteLength":32,"byteOffset":160},{"buffer":0,"byteLength":24,"byteOffset":192},{"buffer":0,"byteLength":23400,"byteOffset":216},{"buffer":0,"byteLength":31200,"byteOffset":23616},{"buffer":0,"byteLength":23400,"byteOffset":54816},{"buffer":0,"byteLength":15600,"byteOffset":78216},{"buffer":0,"byteLength":41472,"byteOffset":93816},{"buffer":0,"byteLength":2160,"byteOffset":135288},{"buffer":0,"byteLength":720,"byteOffset":137448}],"buffers":[{"byteLength":138168,"uri":"level0.bin"}],"cameras":[{"perspective":{"yfov":1.30899691581726,"zfar":4000,"znear":0.0500000007450581},"type":"perspective"}],"extensions":{"KHR_lights_punctual":{"lights":[{"color":[1,1,1],"intensity":1,"range":340282346638528860000000000000000000000,"type":"directional"}]},"OMI_collider":{"colliders":[{"mesh":0,"type":"trimesh"},{"mesh":2,"type":"hull"}]}},"extensionsUsed":["GODOT_single_root","KHR_lights_punctual","OMI_collider","OMI_physics_body"],"materials":[{"extensions":{},"pbrMetallicRoughness":{"baseColorFactor":[0.99999988079071,0.99999988079071,0.99999988079071,1],"metallicFactor":0,"roughnessFactor":1}},{"extensions":{},"pbrMetallicRoughness":{"baseColorFactor":[0.99999988079071,0.99999988079071,0.99999988079071,1],"metallicFactor":0,"roughnessFactor":1}}],"meshes":[{"extras":{"targetNames":[]},"primitives":[{"attributes":{"NORMAL":2,"POSITION":0,"TANGENT":1,"TEXCOORD_0":3},"indices":4,"material":0,"mode":4}]},{"extras":{"targetNames":[]},"primitives":[{"attributes":{"NORMAL":7,"POSITION":5,"TANGENT":6,"TEXCOORD_0":8},"indices":9,"material":1,"mode":4}]},{"extras":{"targetNames":[]},"primitives":[{"attributes":{"POSITION":10},"indices":11,"mode":4}]}],"nodes":[{"children":[1,2,3,6],"extensions":{},"name":"Node3D"},{"extensions":{},"name":"WorldEnvironment"},{"extensions":{"KHR_lights_punctual":{"light":0}},"name":"DirectionalLight3D","rotation":[-0.12940958142281,0.836516261100769,0.482962936162949,0.224143981933594]},{"children":[4],"extensions":{},"mesh":0,"name":"MeshInstance3D"},{"children":[5],"extensions":{"OMI_physics_body":{"type":"static"}},"name":"StaticBody3D"},{"extensions":{"OMI_collider":{"collider":0}},"name":"CollisionShape3D"},{"children":[7,8,9],"extensions":{"OMI_physics_body":{"type":"rigid"}},"name":"Player","translation":[0,2,-2]},{"extensions":{},"mesh":1,"name":"MeshInstance3D2"},{"extensions":{"OMI_collider":{"collider":1}},"name":"CollisionShape3D2"},{"children":[10],"extensions":{},"name":"TwistPivot","translation":[0,1,0]},{"children":[11],"extensions":{},"name":"PitchPivot","rotation":[-0.08715563267469,0,0,0.99619472026825]},{"camera":0,"extensions":{},"name":"Camera3D","translation":[0,0,3]}],"scene":0,"scenes":[{"nodes":[0]}]}